HIERARCHY
ROOT Hips
{
  OFFSET -365.558 92.1851 1491.54
  CHANNELS 6 Xposition Yposition Zposition Zrotation Xrotation Yrotation
  JOINT Spine
  {
    OFFSET -3.70037e-05 8 0.000142578
    CHANNELS 6 Xposition Yposition Zposition Zrotation Xrotation Yrotation
    JOINT Spine1
    {
      OFFSET -0.000383838 8 -0.000434482
      CHANNELS 6 Xposition Yposition Zposition Zrotation Xrotation Yrotation
      JOINT Spine2
      {
        OFFSET -0.000670503 7.99999 -0.000878141
        CHANNELS 6 Xposition Yposition Zposition Zrotation Xrotation Yrotation
        JOINT Spine3
        {
          OFFSET 0 8 0
          CHANNELS 6 Xposition Yposition Zposition Zrotation Xrotation Yrotation
          JOINT Neck
          {
            OFFSET -3.50396e-05 17 0.000138651
            CHANNELS 6 Xposition Yposition Zposition Zrotation Xrotation Yrotation
            JOINT Head
            {
              OFFSET 0.000126163 10.8 0
              CHANNELS 6 Xposition Yposition Zposition Zrotation Xrotation Yrotation
              End Site
              {
                OFFSET 0 20.25 0
              }
            }
          }
          JOINT LeftShoulder
          {
            OFFSET 4.99992 17 0.000263909
            CHANNELS 6 Xposition Yposition Zposition Zrotation Xrotation Yrotation
            JOINT LeftShoulder2
            {
              OFFSET 6.45 0 0
              CHANNELS 6 Xposition Yposition Zposition Zrotation Xrotation Yrotation
              JOINT LeftArm
              {
                OFFSET 6.45012 0.000116353 0
                CHANNELS 6 Xposition Yposition Zposition Zrotation Xrotation Yrotation
                JOINT LeftForeArm
                {
                  OFFSET 0.000168426 -32.4013 -2.00022
                  CHANNELS 6 Xposition Yposition Zposition Zrotation Xrotation Yrotation
                  JOINT LeftHand
                  {
                    OFFSET 0.00014573 -25.6498 2.00013
                    CHANNELS 6 Xposition Yposition Zposition Zrotation Xrotation Yrotation
                    JOINT LeftHandThumb1
                    {
                      OFFSET -0.502993 -1.50314 2.65507
                      CHANNELS 6 Xposition Yposition Zposition Zrotation Xrotation Yrotation
                      JOINT LeftHandThumb2
                      {
                        OFFSET 0.00616847 -3.79773 3.6896
                        CHANNELS 6 Xposition Yposition Zposition Zrotation Xrotation Yrotation
                        JOINT LeftHandThumb3
                        {
                          OFFSET 0.00299129 -2.99925 2.69472
                          CHANNELS 6 Xposition Yposition Zposition Zrotation Xrotation Yrotation
                          End Site
                          {
                            OFFSET -0.0014092 -2.29988 1.79951
                          }
                        }
                      }
                    }
                    JOINT LeftHandIndex
                    {
                      OFFSET 0.000620218 -1.89842 1.59788
                      CHANNELS 6 Xposition Yposition Zposition Zrotation Xrotation Yrotation
                      JOINT LeftHandIndex1
                      {
                        OFFSET 0.00290026 -8.29647 1.89532
                        CHANNELS 6 Xposition Yposition Zposition Zrotation Xrotation Yrotation
                        JOINT LeftHandIndex2
                        {
                          OFFSET -0.000193182 -4.50001 0
                          CHANNELS 6 Xposition Yposition Zposition Zrotation Xrotation Yrotation
                          JOINT LeftHandIndex3
                          {
                            OFFSET -0.000735175 -3.39636 -0.00554933
                            CHANNELS 6 Xposition Yposition Zposition Zrotation Xrotation Yrotation
                            End Site
                            {
                              OFFSET 2.91213e-05 -2.59978 0.00222759
                            }
                          }
                        }
                      }
                    }
                    JOINT LeftHandMiddle
                    {
                      OFFSET -0.246892 -2.19783 0.395262
                      CHANNELS 6 Xposition Yposition Zposition Zrotation Xrotation Yrotation
                      JOINT LeftHandMiddle1
                      {
                        OFFSET -0.00193411 -8.30182 1.00121
                        CHANNELS 6 Xposition Yposition Zposition Zrotation Xrotation Yrotation
                        JOINT LeftHandMiddle2
                        {
                          OFFSET 0.00105987 -4.65242 0.00393217
                          CHANNELS 6 Xposition Yposition Zposition Zrotation Xrotation Yrotation
                          JOINT LeftHandMiddle3
                          {
                            OFFSET 0.000898781 -3.29955 0.00151348
                            CHANNELS 6 Xposition Yposition Zposition Zrotation Xrotation Yrotation
                            End Site
                            {
                              OFFSET -0.00117332 -2.70102 0.000532577
                            }
                          }
                        }
                      }
                    }
                    JOINT LeftHandRing
                    {
                      OFFSET -0.501461 -2.15122 -0.797964
                      CHANNELS 6 Xposition Yposition Zposition Zrotation Xrotation Yrotation
                      JOINT LeftHandRing1
                      {
                        OFFSET -0.000682299 -7.75058 -0.198674
                        CHANNELS 6 Xposition Yposition Zposition Zrotation Xrotation Yrotation
                        JOINT LeftHandRing2
                        {
                          OFFSET -0.0030868 -3.80258 0.00554624
                          CHANNELS 6 Xposition Yposition Zposition Zrotation Xrotation Yrotation
                          JOINT LeftHandRing3
                          {
                            OFFSET -0.00127522 -3.39519 -0.00785227
                            CHANNELS 6 Xposition Yposition Zposition Zrotation Xrotation Yrotation
                            End Site
                            {
                              OFFSET -0.000725933 -2.59758 -0.000685941
                            }
                          }
                        }
                      }
                    }
                    JOINT LeftHandPinky
                    {
                      OFFSET -0.752345 -1.75114 -1.84628
                      CHANNELS 6 Xposition Yposition Zposition Zrotation Xrotation Yrotation
                      JOINT LeftHandPinky1
                      {
                        OFFSET 0.000237317 -7.15111 -1.00039
                        CHANNELS 6 Xposition Yposition Zposition Zrotation Xrotation Yrotation
                        JOINT LeftHandPinky2
                        {
                          OFFSET -0.00102246 -3.00115 0.00173514
                          CHANNELS 6 Xposition Yposition Zposition Zrotation Xrotation Yrotation
                          JOINT LeftHandPinky3
                          {
                            OFFSET -0.0027239 -2.3431 -0.0114271
                            CHANNELS 6 Xposition Yposition Zposition Zrotation Xrotation Yrotation
                            End Site
                            {
                              OFFSET 0.00318683 -2.09927 0.00401244
                            }
                          }
                        }
                      }
                    }
                  }
                }
              }
            }
          }
          JOINT RightShoulder
          {
            OFFSET -4.99997 17 4.0153e-05
            CHANNELS 6 Xposition Yposition Zposition Zrotation Xrotation Yrotation
            JOINT RightShoulder2
            {
              OFFSET -6.45 0 0
              CHANNELS 6 Xposition Yposition Zposition Zrotation Xrotation Yrotation
              JOINT RightArm
              {
                OFFSET -6.45006 -0.000138677 6.67782e-05
                CHANNELS 6 Xposition Yposition Zposition Zrotation Xrotation Yrotation
                JOINT RightForeArm
                {
                  OFFSET -2.1606e-05 -32.3987 -2.00186
                  CHANNELS 6 Xposition Yposition Zposition Zrotation Xrotation Yrotation
                  JOINT RightHand
                  {
                    OFFSET 0.00100771 -25.6499 2.00115
                    CHANNELS 6 Xposition Yposition Zposition Zrotation Xrotation Yrotation
                    JOINT RightHandThumb1
                    {
                      OFFSET 0.498102 -1.49981 2.64841
                      CHANNELS 6 Xposition Yposition Zposition Zrotation Xrotation Yrotation
                      JOINT RightHandThumb2
                      {
                        OFFSET -0.000360613 -3.80075 3.70074
                        CHANNELS 6 Xposition Yposition Zposition Zrotation Xrotation Yrotation
                        JOINT RightHandThumb3
                        {
                          OFFSET 0.00476449 -2.99904 2.6932
                          CHANNELS 6 Xposition Yposition Zposition Zrotation Xrotation Yrotation
                          End Site
                          {
                            OFFSET -0.00494545 -2.29394 1.80391
                          }
                        }
                      }
                    }
                    JOINT RightHandIndex
                    {
                      OFFSET 0.00272208 -1.89498 1.60021
                      CHANNELS 6 Xposition Yposition Zposition Zrotation Xrotation Yrotation
                      JOINT RightHandIndex1
                      {
                        OFFSET 0.000658191 -8.29885 1.89997
                        CHANNELS 6 Xposition Yposition Zposition Zrotation Xrotation Yrotation
                        JOINT RightHandIndex2
                        {
                          OFFSET -0.00197017 -4.50072 0.000166602
                          CHANNELS 6 Xposition Yposition Zposition Zrotation Xrotation Yrotation
                          JOINT RightHandIndex3
                          {
                            OFFSET -0.000717791 -3.39796 -0.00159576
                            CHANNELS 6 Xposition Yposition Zposition Zrotation Xrotation Yrotation
                            End Site
                            {
                              OFFSET 0.000755011 -2.59981 -0.000149476
                            }
                          }
                        }
                      }
                    }
                    JOINT RightHandMiddle
                    {
                      OFFSET 0.24982 -2.19919 0.399392
                      CHANNELS 6 Xposition Yposition Zposition Zrotation Xrotation Yrotation
                      JOINT RightHandMiddle1
                      {
                        OFFSET 0.00496896 -8.29982 0.998888
                        CHANNELS 6 Xposition Yposition Zposition Zrotation Xrotation Yrotation
                        JOINT RightHandMiddle2
                        {
                          OFFSET -0.000899043 -4.65053 0.000853925
                          CHANNELS 6 Xposition Yposition Zposition Zrotation Xrotation Yrotation
                          JOINT RightHandMiddle3
                          {
                            OFFSET -0.00012422 -3.29995 -0.00013271
                            CHANNELS 6 Xposition Yposition Zposition Zrotation Xrotation Yrotation
                            End Site
                            {
                              OFFSET 0.00145185 -2.69815 0.000535394
                            }
                          }
                        }
                      }
                    }
                    JOINT RightHandRing
                    {
                      OFFSET 0.500615 -2.14953 -0.801799
                      CHANNELS 6 Xposition Yposition Zposition Zrotation Xrotation Yrotation
                      JOINT RightHandRing1
                      {
                        OFFSET -0.00342806 -7.75779 -0.19714
                        CHANNELS 6 Xposition Yposition Zposition Zrotation Xrotation Yrotation
                        JOINT RightHandRing2
                        {
                          OFFSET 1.09125e-05 -3.80029 0.000275038
                          CHANNELS 6 Xposition Yposition Zposition Zrotation Xrotation Yrotation
                          JOINT RightHandRing3
                          {
                            OFFSET 0.00335292 -3.39771 -0.00356081
                            CHANNELS 6 Xposition Yposition Zposition Zrotation Xrotation Yrotation
                            End Site
                            {
                              OFFSET 0.000225045 -2.60006 -0.000346477
                            }
                          }
                        }
                      }
                    }
                    JOINT RightHandPinky
                    {
                      OFFSET 0.746046 -1.76027 -1.84814
                      CHANNELS 6 Xposition Yposition Zposition Zrotation Xrotation Yrotation
                      JOINT RightHandPinky1
                      {
                        OFFSET 9.82082e-05 -7.15037 -1.00006
                        CHANNELS 6 Xposition Yposition Zposition Zrotation Xrotation Yrotation
                        JOINT RightHandPinky2
                        {
                          OFFSET -0.00206587 -3.00024 0.000458012
                          CHANNELS 6 Xposition Yposition Zposition Zrotation Xrotation Yrotation
                          JOINT RightHandPinky3
                          {
                            OFFSET 0.000534325 -2.35009 -0.000321885
                            CHANNELS 6 Xposition Yposition Zposition Zrotation Xrotation Yrotation
                            End Site
                            {
                              OFFSET 0.000718669 -2.09958 -0.000171472
                            }
                          }
                        }
                      }
                    }
                  }
                }
              }
            }
          }
        }
      }
    }
  }
  JOINT LeftUpLeg
  {
    OFFSET 8 0 0
    CHANNELS 6 Xposition Yposition Zposition Zrotation Xrotation Yrotation
    JOINT LeftLeg
    {
      OFFSET -1.42518e-05 -45 -1.00001
      CHANNELS 6 Xposition Yposition Zposition Zrotation Xrotation Yrotation
      JOINT LeftFoot
      {
        OFFSET 0.00111989 -41.0002 -1.99853
        CHANNELS 6 Xposition Yposition Zposition Zrotation Xrotation Yrotation
        JOINT LeftToeBase
        {
          OFFSET 0.00147796 -7.49994 12.5011
          CHANNELS 6 Xposition Yposition Zposition Zrotation Xrotation Yrotation
          JOINT LeftFootToe
          {
            OFFSET 0 0 4
            CHANNELS 6 Xposition Yposition Zposition Zrotation Xrotation Yrotation
            End Site
            {
              OFFSET 0 0 0
            }
          }
        }
      }
    }
  }
  JOINT RightUpLeg
  {
    OFFSET -8 0 0
    CHANNELS 6 Xposition Yposition Zposition Zrotation Xrotation Yrotation
    JOINT RightLeg
    {
      OFFSET -0.00235364 -44.9917 -0.998786
      CHANNELS 6 Xposition Yposition Zposition Zrotation Xrotation Yrotation
      JOINT RightFoot
      {
        OFFSET 0.00176636 -41.005 -1.99951
        CHANNELS 6 Xposition Yposition Zposition Zrotation Xrotation Yrotation
        JOINT RightToeBase
        {
          OFFSET 0 -7.50008 12.5001
          CHANNELS 6 Xposition Yposition Zposition Zrotation Xrotation Yrotation
          JOINT RightFootToe
          {
            OFFSET 0 0 4
            CHANNELS 6 Xposition Yposition Zposition Zrotation Xrotation Yrotation
            End Site
            {
              OFFSET 0 0 0
            }
          }
        }
      }
    }
  }
}
MOTION
Frames:	3
Frame Time:	0.0111111
-343.907 91.1344 1490.03 2.91224 5.31898 -118.599 0 8 0 5.29856 12.1759 15.5506 0 8 -1.13687e-13 0.856845 7.31484 5.12691 0 8 8.52651e-14 0.509989 3.65335 2.58178 0 8 1.42109e-13 0.509088 3.63417 2.57016 0 17 -5.68434e-14 -1.48832 4.4112 9.1021 4.54747e-13 10.8 0 -4.61328 9.82779 21.6808 5 17 1.13687e-13 -1.65459 -2.3842 9.71461 6.45 0 1.13687e-13 -1.72483 -1.40253 -3.99594 6.45 -8.52651e-14 0 23.5709 -84.6472 12.2815 -2.27374e-13 -32.4 -2 -8.15767 -3.37541 14.529 0 -25.65 2 28.977 23.4378 22.736 -0.5 -1.5 2.65 -16.1399 -23.1289 13.2148 0 -3.8 3.7 13.065 24.8052 3.93098 2.27374e-13 -3 2.7 0.000547403 6.56972 -0.0231508 3.41061e-13 -1.9 1.6 -1.23398e-06 2.1232e-06 1.15618e-06 0 -8.3 1.9 -1.09281 3.55721 0.0204405 1.13687e-13 -4.5 0 -0.0703193 0.167906 -0.263998 1.13687e-13 -3.4 0 0.000661634 0.167094 -0.262252 -0.25 -2.2 0.4 -1.23398e-06 2.1232e-06 1.15618e-06 2.27374e-13 -8.3 1 -22.2774 30.8308 7.88286 0 -4.65 0 -89.6894 -0.00083836 0.00565221 0 -3.3 0 -90.0002 -0.000330547 5.49437e-05 -0.5 -2.15 -0.8 -1.23398e-06 2.1232e-06 1.15618e-06 -3.41061e-13 -7.75 -0.2 -56.3998 26.4166 18.538 1.13687e-13 -3.8 0 -67.1352 0.00158929 0.00702345 -5.68434e-14 -3.4 -2.27374e-13 -88.2774 0.0305445 0.00327852 -0.75 -1.75 -1.85 -1.23398e-06 2.1232e-06 1.15618e-06 -3.41061e-13 -7.15 -1 -84.8574 7.156 18.3981 0 -3 0 -43.6786 -0.00646029 -0.00360387 -5.68434e-14 -2.35 0 -30.309 -0.00311027 0.00845841 -5 17 -5.68434e-14 0.416036 -4.64044 3.07194 -6.45 -2.84217e-14 -2.27374e-13 -1.41427 0.761539 -2.97749 -6.45 -2.84217e-14 0 -15.3302 -59.707 25.3012 0 -32.4 -2 7.00039 -45.5887 -15.8464 0 -25.65 2 -16.5411 13.2047 7.25457 0.5 -1.5 2.65 -111.717 59.142 -101.033 -1.13687e-13 -3.8 3.7 -27.2401 44.8941 4.62293 0 -3 2.7 0.026514 29.946 -0.0213382 2.27374e-13 -1.9 1.6 -4.28453e-06 6.22887e-06 -5.38343e-06 0 -8.3 1.9 0.133683 3.04109 -0.00707102 0 -4.5 0 -0.00714176 0.114085 0.135139 4.54747e-13 -3.4 -1.13687e-13 0.0167402 0.342014 0.122622 0.25 -2.2 0.4 -4.28453e-06 6.22887e-06 -5.38343e-06 -2.27374e-13 -8.3 1 5.51431 7.84207 -0.537054 0 -4.65 0 25.0675 11.2131 0.451145 2.27374e-13 -3.3 0 21.7931 0.0101499 0.003417 0.5 -2.15 -0.8 -4.28453e-06 6.22887e-06 -5.38343e-06 0 -7.75 -0.2 18.266 7.3801 -1.74403 4.54747e-13 -3.8 0 16.1559 15.5006 1.87794 0 -3.4 0 22.0637 -0.000668726 -0.00777609 0.75 -1.75 -1.85 -4.28453e-06 6.22887e-06 -5.38343e-06 0 -7.15 -1 15.4679 -0.692981 -0.28646 0 -3 0 16.4392 10.5675 0.578551 0 -2.35 0 17.7392 -0.0139495 -0.0150438 8 0 0 43.9201 -15.9601 37.2628 2.27374e-13 -45 -1 -26.3577 21.3082 8.30261 0 -41 -2 4.30866 4.81615 -0.996741 -2.27374e-13 -7.5 12.5 -6.61318e-05 7.02327e-06 0.0103903 -2.27374e-13 0 4 -2.20858 -7.16334 -4.89945 -8 -2.84217e-14 0 18.2266 -22.6503 -55.6372 0 -45 -1 -47.2137 3.07013 10.5725 0 -41 -2 28.0704 -2.35285 -12.4767 -5.68434e-14 -7.5 12.5 7.79197e-05 0.218372 -0.000786754 0 1.42109e-14 4 1.69558 1.29718 119.883 
-343.902 91.1312 1490.03 2.90851 5.3205 -118.557 0 8 0 5.29672 12.2045 15.5596 0 8 -5.68434e-14 0.848944 7.31972 5.13246 0 8 1.42109e-13 0.506299 3.65509 2.58283 -2.27374e-13 8 8.52651e-14 0.505453 3.63445 2.57044 0 17 -5.68434e-14 -1.48267 4.41346 9.09337 2.27374e-13 10.8 0 -4.59868 9.83523 21.6596 5 17 1.13687e-13 -1.64236 -2.36058 9.76452 6.45 -2.84217e-14 0 -1.71913 -1.40262 -3.99582 6.45 -5.68434e-14 0 23.5307 -84.5909 12.3598 0 -32.4 -2 -8.36882 -3.61274 14.7711 -2.27374e-13 -25.65 2 28.2069 23.0774 23.3381 -0.5 -1.5 2.65 -15.8981 -23.2153 13.0324 -1.13687e-13 -3.8 3.7 13.3927 25.2294 3.88083 0 -3 2.7 0.00101187 6.27012 -0.0232498 0 -1.9 1.6 -1.23398e-06 2.1232e-06 1.15618e-06 0 -8.3 1.9 -1.16682 4.22199 0.0362098 2.27374e-13 -4.5 2.27374e-13 -0.0703071 0.169217 -0.266082 0 -3.4 0 0.000673739 0.16841 -0.264321 -0.25 -2.2 0.4 -1.23398e-06 2.1232e-06 1.15618e-06 3.41061e-13 -8.3 1 -23.1801 31.2222 8.29312 1.13687e-13 -4.65 2.27374e-13 -89.6142 -0.000802855 0.00594205 0 -3.3 2.27374e-13 -90.0002 -0.000325318 5.43045e-05 -0.5 -2.15 -0.8 -1.23398e-06 2.1232e-06 1.15618e-06 1.13687e-13 -7.75 -0.2 -57.3053 26.3486 18.8873 1.13687e-13 -3.8 0 -66.2264 0.00107444 0.00705235 -5.68434e-14 -3.4 -2.27374e-13 -88.0364 0.0319753 0.00210053 -0.75 -1.75 -1.85 -1.23398e-06 2.1232e-06 1.15618e-06 -2.27374e-13 -7.15 -1 -85.1613 7.00336 18.4779 -1.13687e-13 -3 0 -43.0867 -0.00657084 -0.00154219 -1.13687e-13 -2.35 0 -29.9379 -0.0033422 0.00851315 -5 17 -1.13687e-13 0.403072 -4.61492 3.10386 -6.45 -5.68434e-14 -1.7053e-13 -1.41403 0.761307 -2.98138 -6.45 -2.84217e-14 -1.13687e-13 -15.3069 -59.7017 25.2449 -2.27374e-13 -32.4 -2 7.30123 -45.4545 -16.0683 0 -25.65 2 -15.8502 13.0301 6.28321 0.5 -1.5 2.65 -111.736 57.9391 -102.005 -2.27374e-13 -3.8 3.7 -27.24 44.8942 4.62295 2.27374e-13 -3 2.7 0.0265155 29.946 -0.0213294 2.27374e-13 -1.9 1.6 -4.28453e-06 6.22887e-06 -5.38343e-06 0 -8.3 1.9 0.141216 3.14398 -0.00724932 2.27374e-13 -4.5 0 -0.00715826 0.114119 0.135831 4.54747e-13 -3.4 0 0.0168978 0.342917 0.123309 0.25 -2.2 0.4 -4.28453e-06 6.22887e-06 -5.38343e-06 0 -8.3 1 5.64599 7.8177 -0.548082 -2.27374e-13 -4.65 0 24.9319 11.1408 0.446006 1.13687e-13 -3.3 1.13687e-13 21.6935 0.0102899 0.00368671 0.5 -2.15 -0.8 -4.28453e-06 6.22887e-06 -5.38343e-06 2.27374e-13 -7.75 -0.2 18.4484 7.26979 -1.74793 2.27374e-13 -3.8 0 16.0084 15.3251 1.83621 0 -3.4 0 21.8767 -0.000587748 -0.00489991 0.75 -1.75 -1.85 -4.28453e-06 6.22887e-06 -5.38343e-06 0 -7.15 -1 15.8585 -1.02455 -0.252635 -2.27374e-13 -3 0 16.183 10.3829 0.5588 1.13687e-13 -2.35 2.27374e-13 17.5041 -0.0141244 -0.0148644 8 -2.84217e-14 5.68434e-14 43.9156 -15.9776 37.2739 2.27374e-13 -45 -1 -26.3563 21.3039 8.29994 0 -41 -2 4.32093 4.83223 -1.02036 -2.27374e-13 -7.5 12.5 -6.61318e-05 7.02327e-06 0.0103903 0 0 4 -2.21465 -7.17195 -4.90135 -8 0 -1.13687e-13 18.232 -22.6532 -55.6381 0 -45 -1 -47.221 3.0863 10.5792 -1.13687e-13 -41 -2 28.0692 -2.37751 -12.5059 5.68434e-14 -7.5 12.5 7.79207e-05 0.218443 -0.000786754 -5.68434e-14 0 4 1.70611 1.3071 119.882 
-343.899 91.128 1490.03 2.90429 5.32247 -118.509 0 8 0 5.29325 12.2329 15.5679 -2.27374e-13 8 -1.13687e-13 0.840221 7.32405 5.13745 0 8 1.7053e-13 0.502202 3.65591 2.58387 2.27374e-13 8 1.7053e-13 0.50155 3.6347 2.573 2.27374e-13 17 -5.68434e-14 -1.47271 4.41316 9.0852 2.27374e-13 10.8 0 -4.57363 9.83586 21.6388 5 17 5.68434e-14 -1.62969 -2.33865 9.80295 6.45 -2.84217e-14 0 -1.71393 -1.40262 -3.99574 6.45 -2.84217e-14 0 23.6679 -84.5273 12.6334 2.27374e-13 -32.4 -2 -8.596 -3.8651 14.9923 -2.27374e-13 -25.65 2 27.4711 22.7028 23.9225 -0.5 -1.5 2.65 -15.6687 -23.3031 12.844 -2.27374e-13 -3.8 3.7 13.73 25.6556 3.82403 2.27374e-13 -3 2.7 0.0014726 5.95049 -0.0233386 1.13687e-13 -1.9 1.6 -1.23398e-06 2.1232e-06 1.15618e-06 0 -8.3 1.9 -1.24619 4.88669 0.055106 3.41061e-13 -4.5 0 -0.070295 0.17052 -0.26812 1.13687e-13 -3.4 2.27374e-13 0.000685835 0.169715 -0.266373 -0.25 -2.2 0.4 -1.23398e-06 2.1232e-06 1.15618e-06 3.41061e-13 -8.3 1 -24.0728 31.5719 8.69957 1.13687e-13 -4.65 0 -89.5355 -0.000765956 0.00622946 2.84217e-14 -3.3 4.54747e-13 -90.0002 -0.000320069 5.36313e-05 -0.5 -2.15 -0.8 -1.23398e-06 2.1232e-06 1.15618e-06 0 -7.75 -0.2 -58.1835 26.2531 19.2139 -1.13687e-13 -3.8 -2.27374e-13 -65.3617 0.000480804 0.00707086 0 -3.4 0 -87.8028 0.0333573 0.00102886 -0.75 -1.75 -1.85 -1.23398e-06 2.1232e-06 1.15618e-06 -3.41061e-13 -7.15 -1 -85.471 6.83631 18.5494 -1.13687e-13 -3 0 -42.5135 -0.00664098 0.000495698 0 -2.35 2.27374e-13 -29.5792 -0.00357265 0.00856075 -5 17 -1.13687e-13 0.389816 -4.58686 3.12531 -6.45 -1.13687e-13 -1.13687e-13 -1.41375 0.761077 -2.98187 -6.45 -2.84217e-14 -5.68434e-14 -15.2684 -59.6831 25.2006 -2.27374e-13 -32.4 -2 7.55008 -45.3908 -16.2668 -2.27374e-13 -25.65 2 -15.2736 12.8611 5.38143 0.5 -1.5 2.65 -111.779 56.8075 -102.835 -1.13687e-13 -3.8 3.7 -27.2399 44.8942 4.62297 0 -3 2.7 0.0265167 29.946 -0.0213215 0 -1.9 1.6 -4.28453e-06 6.22887e-06 -5.38343e-06 0 -8.3 1.9 0.146217 3.21163 -0.00741966 0 -4.5 0 -0.00717425 0.114151 0.13652 4.54747e-13 -3.4 -1.13687e-13 0.0170558 0.343812 0.123996 0.25 -2.2 0.4 -4.28453e-06 6.22887e-06 -5.38343e-06 0 -8.3 1 5.76245 7.81159 -0.560721 0 -4.65 0 24.8438 11.0933 0.442762 -2.27374e-13 -3.3 0 21.6287 0.0104279 0.00392497 0.5 -2.15 -0.8 -4.28453e-06 6.22887e-06 -5.38343e-06 2.27374e-13 -7.75 -0.2 18.6737 7.20282 -1.76548 2.27374e-13 -3.8 0 15.9177 15.2176 1.81 2.27374e-13 -3.4 0 21.7612 -0.000504926 -0.00270638 0.75 -1.75 -1.85 -4.28453e-06 6.22887e-06 -5.38343e-06 0 -7.15 -1 16.269 -1.34504 -0.21784 -2.27374e-13 -3 0 15.918 10.1939 0.541412 0 -2.35 1.13687e-13 17.262 -0.0143013 -0.0146462 8 -2.84217e-14 1.13687e-13 43.91 -15.9968 37.2862 0 -45 -1 -26.3559 21.3031 8.29904 -2.27374e-13 -41 -2 4.3354 4.85019 -1.04969 -2.27374e-13 -7.5 12.5 -6.61318e-05 7.02327e-06 0.0103903 0 0 4 -2.2219 -7.17996 -4.90311 -8 0 -1.7053e-13 18.2384 -22.6533 -55.6358 0 -45 -1 -47.228 3.10247 10.5855 -1.13687e-13 -41 -2 28.0689 -2.40326 -12.5467 0 -7.5 12.5 7.79216e-05 0.218514 -0.000786754 0 -1.42109e-14 4 1.71471 1.31574 119.882 
